<svg xmlns="http://www.w3.org/2000/svg" width="18.5" height="18.514" viewBox="0 0 18.5 18.514">
  <path id="_1904663_bubble_chat_comment_communication_message_icon" data-name="1904663_bubble_chat_comment_communication_message_icon" d="M15.888,0H2.109A2.109,2.109,0,0,0,0,2.109v9.079A2.109,2.109,0,0,0,2.109,13.3H5.382a.141.141,0,0,1,.141.141v3.576a.984.984,0,0,0,1.68.7l4.37-4.37a.141.141,0,0,1,.1-.041h4.218A2.109,2.109,0,0,0,18,11.189V2.109A2.109,2.109,0,0,0,15.888,0Zm1.265,11.188a1.265,1.265,0,0,1-1.265,1.265H11.67a.984.984,0,0,0-.7.281L6.608,17.111a.141.141,0,0,1-.24-.1V13.437a.984.984,0,0,0-.984-.984H2.109A1.265,1.265,0,0,1,.844,11.188V2.109A1.265,1.265,0,0,1,2.109.844H15.888a1.265,1.265,0,0,1,1.265,1.265Z" transform="translate(0.25 0.25)" fill="#fff" stroke="#fff" stroke-linecap="round" stroke-width="0.5"/>
</svg>
