<svg xmlns="http://www.w3.org/2000/svg" width="25.652" height="20.846" viewBox="0 0 25.652 20.846">
  <path id="_104501_twitter_bird_icon" data-name="104501_twitter_bird_icon" d="M29.226,12.794a10.471,10.471,0,0,1-3.023.828,5.272,5.272,0,0,0,2.314-2.912,10.535,10.535,0,0,1-3.342,1.278,5.267,5.267,0,0,0-8.967,4.8,14.943,14.943,0,0,1-10.848-5.5,5.269,5.269,0,0,0,1.629,7.027,5.248,5.248,0,0,1-2.384-.659c0,.022,0,.044,0,.067a5.267,5.267,0,0,0,4.222,5.16,5.291,5.291,0,0,1-1.387.184,5.214,5.214,0,0,1-.99-.095,5.268,5.268,0,0,0,4.916,3.655,10.62,10.62,0,0,1-7.791,2.179,14.893,14.893,0,0,0,8.067,2.365A14.871,14.871,0,0,0,26.615,16.2q0-.342-.015-.682A10.659,10.659,0,0,0,29.226,12.794Z" transform="translate(-3.574 -10.326)" fill="#fff"/>
</svg>
