<svg xmlns="http://www.w3.org/2000/svg" width="35" height="20" viewBox="0 0 35 20">
  <g id="Groupe_696" data-name="Groupe 696" transform="translate(-352.932 -32)">
    <path id="Ligne_317" data-name="Ligne 317" d="M33.511.75H-.011A.745.745,0,0,1-.75,0,.745.745,0,0,1-.011-.75H33.511A.745.745,0,0,1,34.25,0,.745.745,0,0,1,33.511.75Z" transform="translate(353.682 32.75)" fill="#182630"/>
    <path id="Ligne_319" data-name="Ligne 319" d="M33.511.75H-.011A.745.745,0,0,1-.75,0,.745.745,0,0,1-.011-.75H33.511A.745.745,0,0,1,34.25,0,.745.745,0,0,1,33.511.75Z" transform="translate(353.682 42)" fill="#182630"/>
    <path id="Ligne_333" data-name="Ligne 333" d="M33.511.75H-.011A.745.745,0,0,1-.75,0,.745.745,0,0,1-.011-.75H33.511A.745.745,0,0,1,34.25,0,.745.745,0,0,1,33.511.75Z" transform="translate(353.682 51.25)" fill="#182630"/>
  </g>
</svg>
