<svg xmlns="http://www.w3.org/2000/svg" width="28.606" height="20.572" viewBox="0 0 28.606 20.572">
  <path id="Tracé_2221" data-name="Tracé 2221" d="M31.589-36.262v10.594H19.517v-6.885a22.939,22.939,0,0,1,1.022-7.292,29.5,29.5,0,0,1,3.176-6.4H29.76q-.831,1.687-1.444,3.321a23.354,23.354,0,0,0-.967,3.275,15.974,15.974,0,0,0-.354,3.382Zm-16.547,0v10.594H2.984v-6.885a22.807,22.807,0,0,1,1.029-7.292,30.362,30.362,0,0,1,3.157-6.4h6.045a35.208,35.208,0,0,0-1.438,3.321,23.948,23.948,0,0,0-.961,3.275,15.974,15.974,0,0,0-.354,3.382Z" transform="translate(-2.983 46.24)" fill="#cb2a6e"/>
</svg>
