<svg id="_216394_linkedin_social_icon" data-name="216394_linkedin_social_icon" xmlns="http://www.w3.org/2000/svg" width="20.921" height="20.846" viewBox="0 0 20.921 20.846">
  <g id="Groupe_48" data-name="Groupe 48" transform="translate(0.074 5.956)">
    <path id="Tracé_1" data-name="Tracé 1" d="M9.467,23.89H5V9H9.467Zm16.379,0H21.379V15.936c0-2.073-.739-3.1-2.2-3.1a2.2,2.2,0,0,0-2.265,1.735V23.89H12.445s.06-13.4,0-14.89h3.526l.272,2.978h.092a4.972,4.972,0,0,1,4.387-2.5,4.624,4.624,0,0,1,3.7,1.491,6.444,6.444,0,0,1,1.421,4.512Z" transform="translate(-5 -9)" fill="#fff"/>
  </g>
  <g id="Groupe_49" data-name="Groupe 49" transform="translate(0 0)">
    <ellipse id="Ellipse_1" data-name="Ellipse 1" cx="2.308" cy="2.234" rx="2.308" ry="2.234" fill="#fff"/>
  </g>
</svg>
