<svg xmlns="http://www.w3.org/2000/svg" width="25.605" height="17.923" viewBox="0 0 25.605 17.923">
  <path id="_5305164_play_video_youtube_youtube_logo_icon" data-name="5305164_play_video_youtube_youtube logo_icon" d="M25.07,79.6a3.206,3.206,0,0,0-2.264-2.264c-2-.535-10-.535-10-.535s-8.007,0-10,.535A3.207,3.207,0,0,0,.535,79.6a35.767,35.767,0,0,0,0,12.326A3.207,3.207,0,0,0,2.8,94.189c2,.535,10,.535,10,.535s8.007,0,10-.535a3.206,3.206,0,0,0,2.264-2.264,33.327,33.327,0,0,0,.535-6.163A33.331,33.331,0,0,0,25.07,79.6Zm-14.828,10V81.921l6.652,3.841L10.242,89.6Z" transform="translate(0 -76.8)" fill="#fff"/>
</svg>
