<svg xmlns="http://www.w3.org/2000/svg" xmlns:xlink="http://www.w3.org/1999/xlink" width="214.001" height="81.194" viewBox="0 0 214.001 81.194">
  <defs>
    <clipPath id="clip-path">
      <rect id="Rectangle_295" data-name="Rectangle 295" width="214.001" height="81.194" fill="#fff"/>
    </clipPath>
  </defs>
  <g id="Groupe_378" data-name="Groupe 378" transform="translate(10)">
    <g id="Groupe_122" data-name="Groupe 122" transform="translate(-10)" clip-path="url(#clip-path)">
      <path id="Tracé_8" data-name="Tracé 8" d="M356.075,39.918H350.43V50.4h5.645s5.642-.266,5.642-5.243-5.642-5.24-5.642-5.24" transform="translate(-167.978 -19.135)" fill="#fff"/>
      <path id="Tracé_9" data-name="Tracé 9" d="M52.559,58.054h8.715L57.042,47Z" transform="translate(-25.194 -22.529)" fill="#fff"/>
      <path id="Tracé_10" data-name="Tracé 10" d="M210.254,0H4.075A3.866,3.866,0,0,0,.222,3.853V57.167a3.868,3.868,0,0,0,3.853,3.856H210.254a3.864,3.864,0,0,0,3.854-3.856V3.853A3.862,3.862,0,0,0,210.254,0M42.16,51.061l-2.836-7.069-14.989.1-2.69,6.971H9.891L26.674,11.472H37.18L54.015,51.061Zm33.118.646C63.267,51.7,54.61,43.293,54.613,31.268c0-12.875,10.4-20.493,20.712-20.493,8.817,0,13.464,4.233,16.684,8.118l-8.118,6.624s-3.237-4.631-8.567-4.631-9.408,4.4-9.408,10.364,4.333,10.6,9.061,10.6,7.121-2.4,9.115-4.686L92.257,42.8s-4.731,8.93-16.98,8.912m37.232,0c-11.754-.081-17.8-6.687-17.8-6.687l6.177-7.239c2.525,3.056,9.374,4.662,11.968,4.714,3.238.066,5.678-.627,5.031-2.721-.288-.929-1.6-2.547-6.009-3.492-9.4-2.02-15.37-5.072-15.37-13.109,0-8.564,7.9-12.065,15.37-12.065,10.388,0,16.1,5.228,16.1,5.228s-5.579,7.768-5.642,7.7c-3.189-2.656-8.5-3.851-8.5-3.851s-5.312-1-6.135,1.927,4.01,3.85,7.2,4.534c11.349,2.343,14.14,6.419,14.14,12.727s-4.782,12.417-16.532,12.332m53.515-.646h-31.8V11.472h31.44v9.535H145.094v5.829H163.77v8.623H145.094v6.177h20.932Zm22.74-11.221h-6.138V51.061H171.67V11.472H188.2c6.439,0,16.531,2.34,16.531,14.758,0,11.353-11.36,13.611-15.971,13.611" transform="translate(-0.106)" fill="#fff"/>
      <path id="Tracé_11" data-name="Tracé 11" d="M6.621,144.666a3.881,3.881,0,0,1-2.808,1.023H0V134.833H3.813a3.883,3.883,0,0,1,2.808,1.023c1.173,1.173,1.094,2.759,1.094,4.33s.078,3.308-1.094,4.48m-1.13-7.622a2.347,2.347,0,0,0-1.845-.732h-2v7.9h2a2.347,2.347,0,0,0,1.845-.732c.564-.623.578-1.8.578-3.292s-.014-2.516-.578-3.143m7.563-2.21H14.7v10.855H13.054Zm13.876,9.711a4.155,4.155,0,0,1-5.841.075c-1.068-1.065-1.051-2.27-1.051-4.358s-.017-3.294,1.051-4.363a3.9,3.9,0,0,1,2.852-1.158,3.817,3.817,0,0,1,3.948,3.371h-1.66a2.217,2.217,0,0,0-2.288-1.888,2.176,2.176,0,0,0-1.6.67c-.534.578-.656,1.188-.656,3.369s.121,2.805.656,3.382a2.156,2.156,0,0,0,1.6.659,2.3,2.3,0,0,0,1.768-.763,2.439,2.439,0,0,0,.548-1.707v-.609H23.941v-1.4h3.966v1.66a4.063,4.063,0,0,1-.977,3.065m6.3-9.711h1.643v10.855H33.228Zm11.056,1.478v9.377H42.636v-9.377H39.647v-1.478h7.627v1.478Zm13.08,9.377-.745-2.181H52.335l-.749,2.181H49.829l3.98-10.855h1.326l3.98,10.855Zm-2.848-8.4-1.693,4.818h3.336Zm9.039,8.4V134.833H65.2v9.377h5.229v1.478Zm21.089.093a4.917,4.917,0,0,1-3.84-1.433l1.1-1.083a3.575,3.575,0,0,0,2.776,1.037c1.416,0,2.238-.61,2.238-1.665a1.457,1.457,0,0,0-.425-1.125,1.872,1.872,0,0,0-1.19-.457l-1.282-.185A3.684,3.684,0,0,1,81.963,140a2.687,2.687,0,0,1-.794-2.075c0-1.888,1.372-3.186,3.627-3.186a4.511,4.511,0,0,1,3.369,1.237l-1.051,1.037a3.186,3.186,0,0,0-2.364-.838c-1.279,0-1.982.731-1.982,1.69a1.293,1.293,0,0,0,.411,1.009,2.428,2.428,0,0,0,1.218.5l1.237.182a3.6,3.6,0,0,1,2.028.81,2.831,2.831,0,0,1,.883,2.227c0,2-1.632,3.186-3.9,3.186m12.731,0a3.682,3.682,0,0,1-3.886-3.753v-7.195h1.647v7.12a2.251,2.251,0,1,0,4.5,0v-7.12h1.646v7.195a3.7,3.7,0,0,1-3.906,3.753m13.592-4.363h-2.473v4.269h-1.647V134.833h4.12a3.3,3.3,0,1,1,0,6.586m-.1-5.108h-2.377v3.614h2.377a1.81,1.81,0,1,0,0-3.614m12.583,5.108H120.98v4.269h-1.646V134.833h4.119a3.3,3.3,0,1,1,0,6.586m-.092-5.108H120.98v3.614h2.381a1.81,1.81,0,1,0,0-3.614m8.46,9.377V134.833h1.65v9.377H138.7v1.478Zm13.982-4.466v4.466h-1.647v-4.466l-3.247-6.389h1.8l2.271,4.772,2.274-4.772h1.8Zm17.7,4.559a3.928,3.928,0,0,1-2.851-1.162c-1.066-1.065-1.055-2.27-1.055-4.358s-.011-3.294,1.055-4.363a3.939,3.939,0,0,1,2.851-1.158,3.738,3.738,0,0,1,3.87,3.34H165.7a2.248,2.248,0,0,0-3.8-1.2c-.532.579-.653,1.2-.653,3.385s.121,2.805.653,3.382a2.159,2.159,0,0,0,1.6.659,2.193,2.193,0,0,0,2.21-1.863h1.66a3.745,3.745,0,0,1-3.87,3.343m15.017-.093v-4.743h-4.4v4.743h-1.646V134.833h1.646v4.636h4.4v-4.636h1.65v10.855Zm13.618,0-.749-2.181h-4.281l-.748,2.181h-1.754l3.98-10.855h1.326l3.98,10.855Zm-2.849-8.4-1.693,4.818h3.337Zm9.043-2.456h1.646v10.855h-1.646Zm14.041,10.855-5.014-7.638v7.638h-1.65V134.833h1.511l5.018,7.622v-7.622h1.643v10.855Z" transform="translate(0 -64.587)" fill="#fff"/>
    </g>
  </g>
</svg>
