<svg id="Groupe_123" data-name="Groupe 123" xmlns="http://www.w3.org/2000/svg" xmlns:xlink="http://www.w3.org/1999/xlink" width="140.083" height="53.149" viewBox="0 0 140.083 53.149">
  <defs>
    <clipPath id="clip-path">
      <rect id="Rectangle_295" data-name="Rectangle 295" width="140.083" height="53.149" fill="#a79f89"/>
    </clipPath>
  </defs>
  <g id="Groupe_122" data-name="Groupe 122" clip-path="url(#clip-path)">
    <path id="Tracé_8" data-name="Tracé 8" d="M354.125,39.918h-3.7V46.78h3.7s3.693-.174,3.693-3.432-3.693-3.43-3.693-3.43" transform="translate(-230.998 -26.313)" fill="#a79f89"/>
    <path id="Tracé_9" data-name="Tracé 9" d="M52.559,54.236h5.7L55.494,47Z" transform="translate(-34.646 -30.982)" fill="#a79f89"/>
    <path id="Tracé_10" data-name="Tracé 10" d="M137.707,0H2.744A2.531,2.531,0,0,0,.222,2.522v34.9a2.532,2.532,0,0,0,2.522,2.524H137.707a2.53,2.53,0,0,0,2.523-2.524V2.522A2.528,2.528,0,0,0,137.707,0M27.674,33.424,25.818,28.8l-9.812.065-1.761,4.563H6.551L17.537,7.509h6.877l11.02,25.915Zm21.679.423c-7.862-.007-13.529-5.508-13.527-13.379,0-8.428,6.811-13.415,13.558-13.415A13.168,13.168,0,0,1,60.3,12.366L54.991,16.7a7.5,7.5,0,0,0-5.608-3.031c-3.487,0-6.159,2.878-6.159,6.784s2.836,6.939,5.931,6.939,4.662-1.571,5.966-3.067l5.345,3.687s-3.1,5.846-11.115,5.834m24.372,0c-7.694-.053-11.65-4.377-11.65-4.377l4.043-4.738c1.653,2,6.136,3.052,7.834,3.086,2.12.043,3.717-.41,3.293-1.781-.188-.608-1.047-1.667-3.933-2.286-6.151-1.322-10.061-3.32-10.061-8.581,0-5.606,5.171-7.9,10.061-7.9,6.8,0,10.539,3.422,10.539,3.422s-3.652,5.085-3.693,5.041a15.6,15.6,0,0,0-5.563-2.521s-3.477-.653-4.016,1.261S73.2,17,75.291,17.444c7.429,1.534,9.256,4.2,9.256,8.331s-3.13,8.128-10.822,8.073m35.031-.423H87.937V7.509h20.58v6.241H95.054v3.816h12.225v5.644H95.054v4.043h13.7Zm14.885-7.345h-4.018v7.345H112.45V7.509h10.824c4.215,0,10.821,1.532,10.821,9.66,0,7.431-7.436,8.91-10.454,8.91" transform="translate(-0.146)" fill="#a79f89"/>
    <path id="Tracé_11" data-name="Tracé 11" d="M4.334,141.237a2.541,2.541,0,0,1-1.838.669H0V134.8H2.5a2.542,2.542,0,0,1,1.838.669A3.677,3.677,0,0,1,5.05,138.3a3.913,3.913,0,0,1-.716,2.932m-.74-4.99a1.536,1.536,0,0,0-1.208-.479H1.079v5.171H2.387a1.536,1.536,0,0,0,1.208-.479,3.442,3.442,0,0,0,.379-2.155c0-.978-.009-1.647-.379-2.057M8.545,134.8H9.623v7.106H8.545Zm9.083,6.357a2.72,2.72,0,0,1-3.823.049c-.7-.7-.688-1.486-.688-2.853s-.011-2.156.688-2.856a2.551,2.551,0,0,1,1.867-.758,2.5,2.5,0,0,1,2.584,2.207H17.169a1.451,1.451,0,0,0-1.5-1.236,1.424,1.424,0,0,0-1.048.438c-.35.379-.429.777-.429,2.205s.079,1.836.429,2.214a1.411,1.411,0,0,0,1.048.431,1.5,1.5,0,0,0,1.157-.5,1.6,1.6,0,0,0,.359-1.118v-.4H15.672v-.919h2.6v1.087a2.66,2.66,0,0,1-.64,2.006M21.75,134.8h1.076v7.106H21.75Zm7.237.968v6.138H27.909v-6.138H25.953V134.8h4.992v.968Zm8.562,6.138-.488-1.427h-2.8l-.49,1.427h-1.15l2.606-7.106h.868l2.606,7.106Zm-1.864-5.5-1.108,3.154h2.184Zm5.917,5.5V134.8h1.079v6.138H46.1v.968Zm13.8.061a3.219,3.219,0,0,1-2.514-.938l.718-.709a2.34,2.34,0,0,0,1.817.679c.927,0,1.465-.4,1.465-1.09a.954.954,0,0,0-.278-.737,1.226,1.226,0,0,0-.779-.3L55,138.753a2.412,2.412,0,0,1-1.344-.569,1.759,1.759,0,0,1-.52-1.358,2.1,2.1,0,0,1,2.374-2.086,2.953,2.953,0,0,1,2.205.81l-.688.679a2.085,2.085,0,0,0-1.548-.548c-.837,0-1.3.478-1.3,1.106a.846.846,0,0,0,.269.66,1.59,1.59,0,0,0,.8.329l.81.119a2.355,2.355,0,0,1,1.327.53,1.853,1.853,0,0,1,.578,1.458c0,1.307-1.068,2.086-2.555,2.086m8.334,0a2.41,2.41,0,0,1-2.543-2.457V134.8h1.078v4.661a1.474,1.474,0,1,0,2.944,0V134.8H66.3v4.71a2.419,2.419,0,0,1-2.557,2.457m8.9-2.856H71.018v2.795H69.94V134.8h2.7a2.159,2.159,0,1,1,0,4.311m-.063-3.343H71.018v2.366h1.556a1.185,1.185,0,1,0,0-2.366m8.236,3.343H79.192v2.795H78.114V134.8h2.7a2.159,2.159,0,1,1,0,4.311m-.06-3.343H79.192v2.366h1.559a1.185,1.185,0,1,0,0-2.366m5.538,6.138V134.8h1.08v6.138h3.423v.968Zm9.153-2.923v2.923H94.363v-2.923L92.237,134.8h1.178l1.487,3.124L96.39,134.8h1.176Zm11.589,2.984a2.571,2.571,0,0,1-1.866-.761c-.7-.7-.691-1.486-.691-2.853s-.007-2.156.691-2.856a2.578,2.578,0,0,1,1.866-.758,2.447,2.447,0,0,1,2.533,2.186h-1.1a1.472,1.472,0,0,0-2.486-.788c-.348.379-.428.788-.428,2.216s.079,1.836.428,2.214a1.413,1.413,0,0,0,1.05.431,1.436,1.436,0,0,0,1.447-1.22h1.087a2.451,2.451,0,0,1-2.533,2.188m9.83-.061v-3.1h-2.883v3.1H112.9V134.8h1.078v3.035h2.883V134.8h1.08v7.106Zm8.914,0-.49-1.427h-2.8l-.489,1.427h-1.148l2.606-7.106h.868l2.606,7.106Zm-1.865-5.5-1.108,3.154h2.185Zm5.919-1.608h1.077v7.106h-1.077Zm9.191,7.106-3.282-5v5h-1.08V134.8h.989l3.285,4.99V134.8h1.076v7.106Z" transform="translate(0 -88.819)" fill="#a79f89"/>
  </g>
</svg>
